<?xml version="1.0" standalone="no"?>
<!DOCTYPE svg PUBLIC "-//W3C//DTD SVG 20010904//EN"
 "http://www.w3.org/TR/2001/REC-SVG-20010904/DTD/svg10.dtd">
<svg version="1.0" xmlns="http://www.w3.org/2000/svg"
 width="2000.000000pt" height="533.000000pt" viewBox="0 0 2000.000000 533.000000"
 preserveAspectRatio="xMidYMid meet">

<g transform="translate(0.000000,533.000000) scale(0.100000,-0.100000)"
fill="#000000" stroke="none">
<path d="M7020 5249 c-136 -34 -462 -98 -645 -127 l-180 -28 -19 -38 c-17 -36
-29 -176 -16 -189 4 -4 509 -57 543 -57 4 0 6 -952 5 -2117 l-3 -2116 -60 -23
c-33 -12 -137 -41 -232 -64 l-172 -42 -8 -46 c-8 -54 -8 -170 1 -179 3 -3 97
-1 208 6 464 26 774 25 1304 -6 l112 -6 16 53 c15 49 23 180 11 180 -4 0 -316
81 -467 121 l-38 10 0 2310 0 2310 -45 19 c-66 28 -157 50 -201 49 -22 -1 -73
-10 -114 -20z"/>
<path d="M8895 5254 c-86 -24 -532 -112 -695 -137 l-155 -23 -17 -45 c-21 -54
-25 -189 -5 -189 6 0 127 -11 267 -25 140 -14 258 -25 263 -25 4 0 7 -952 7
-2116 l0 -2115 -47 -21 c-26 -11 -130 -41 -230 -65 l-183 -45 -10 -37 c-5 -20
-10 -72 -10 -115 l0 -79 108 6 c450 26 705 30 1037 16 187 -7 373 -14 414 -14
l74 0 14 40 c15 41 23 168 11 180 -4 5 -490 134 -505 135 -2 0 -3 1039 -3
2310 l0 2309 -29 15 c-46 24 -172 56 -216 55 -22 0 -62 -7 -90 -15z"/>
<path d="M11605 3698 c-292 -14 -575 -106 -808 -262 -374 -249 -614 -645 -704
-1161 -25 -145 -25 -587 0 -736 68 -405 221 -722 467 -968 247 -248 560 -394
943 -441 126 -16 472 -8 585 14 358 67 629 209 859 449 234 245 385 573 444
961 28 183 30 514 5 681 -66 431 -236 781 -508 1040 -330 316 -740 451 -1283
423z m339 -303 c237 -63 409 -214 541 -475 210 -416 274 -1130 151 -1690 -33
-153 -58 -225 -116 -345 -148 -305 -372 -459 -700 -481 -237 -16 -454 53 -610
194 -302 272 -446 770 -418 1447 14 361 81 681 183 886 82 162 211 313 330
384 65 39 187 81 275 95 78 13 294 4 364 -15z"/>
<path d="M18015 3699 c-402 -15 -752 -91 -1064 -231 l-64 -28 6 -153 c7 -187
46 -412 118 -679 l10 -38 92 1 c51 0 114 6 142 12 42 10 50 16 57 42 4 17 24
163 43 325 19 162 37 309 40 326 5 29 10 32 93 57 191 57 471 87 620 67 250
-33 390 -162 462 -424 35 -123 43 -266 35 -612 l-7 -321 -252 -6 c-458 -11
-753 -61 -1033 -176 -158 -65 -246 -124 -369 -246 -98 -98 -115 -120 -156
-205 -56 -114 -75 -189 -89 -335 -23 -257 42 -495 176 -643 108 -118 266 -209
450 -259 93 -25 114 -27 315 -27 229 -1 302 8 448 58 162 56 368 180 483 293
32 30 63 53 70 51 8 -3 33 -75 60 -174 l46 -169 49 -12 c85 -22 302 -35 449
-28 136 6 376 30 422 41 31 8 55 91 51 175 -3 72 18 61 -193 108 -71 16 -162
42 -202 56 l-72 27 -4 1066 c-3 937 -5 1081 -20 1178 -62 411 -196 651 -429
770 -192 97 -395 127 -783 113z m585 -2373 l0 -453 -59 -65 c-74 -81 -181
-155 -314 -218 -141 -67 -209 -84 -342 -84 -172 0 -298 48 -395 150 -98 103
-135 232 -127 434 4 69 13 152 22 185 25 91 84 193 147 257 154 154 489 238
986 247 l82 1 0 -454z"/>
<path d="M1210 3676 c-495 -71 -802 -289 -890 -632 -28 -105 -37 -292 -20
-420 31 -247 109 -407 278 -565 151 -142 305 -238 604 -379 601 -283 798 -470
798 -760 0 -228 -114 -366 -370 -448 -122 -39 -181 -47 -350 -46 -219 1 -376
28 -520 91 l-57 24 -6 52 c-3 29 -18 185 -33 347 -15 162 -30 299 -35 304 -12
13 -135 35 -200 36 -30 0 -63 -6 -72 -13 -17 -13 -65 -184 -91 -322 -20 -112
-38 -351 -34 -469 l3 -99 90 -48 c175 -95 355 -152 582 -186 151 -22 637 -25
753 -5 350 62 601 186 765 379 146 172 213 414 184 673 -24 212 -96 359 -253
516 -153 152 -337 269 -733 468 -554 277 -719 424 -755 673 -30 207 47 369
219 461 164 87 440 114 694 67 121 -23 148 -33 154 -58 2 -12 25 -164 50 -337
25 -173 48 -325 50 -337 8 -33 91 -57 198 -58 74 0 91 3 102 18 20 27 72 226
97 367 17 99 21 168 22 330 l1 205 -85 34 c-106 42 -348 103 -500 126 -154 23
-511 29 -640 11z"/>
<path d="M4590 3679 c-722 -47 -1293 -536 -1459 -1249 -77 -328 -72 -758 10
-1085 130 -513 460 -900 925 -1084 202 -80 367 -111 624 -118 172 -5 208 -3
308 16 277 53 530 184 735 381 93 89 99 96 94 127 -7 40 -37 85 -77 113 l-30
21 -103 -64 c-204 -128 -356 -191 -522 -218 -124 -19 -444 -17 -529 4 -214 54
-383 167 -516 347 -175 236 -270 596 -270 1028 l0 142 348 -1 c191 0 642 -4
1002 -8 l655 -8 46 36 c45 34 47 39 54 100 7 68 0 237 -16 391 -30 272 -124
537 -259 728 -214 303 -542 432 -1020 401z m261 -293 c161 -34 259 -128 321
-306 48 -138 82 -401 76 -585 l-3 -100 -713 -39 c-392 -22 -715 -36 -719 -32
-10 10 32 209 67 316 108 331 334 602 592 707 128 52 256 65 379 39z"/>
<path d="M15881 3680 c-103 -11 -228 -54 -322 -111 -161 -96 -359 -288 -512
-496 -45 -61 -85 -112 -89 -112 -5 -1 -8 136 -8 303 l0 303 -57 26 c-109 49
-137 50 -275 18 -209 -50 -751 -151 -810 -151 -3 0 -14 -21 -24 -46 -21 -54
-25 -171 -7 -182 7 -4 124 -18 260 -31 136 -12 256 -25 266 -27 16 -5 17 -76
17 -1300 l0 -1295 -47 -20 c-27 -11 -132 -41 -235 -66 l-187 -45 -5 -41 c-8
-55 -9 -93 -8 -146 l2 -44 113 6 c465 27 638 30 1032 16 220 -8 449 -14 509
-14 l109 0 14 40 c13 39 22 169 12 180 -3 3 -124 29 -270 59 -145 30 -288 60
-316 66 l-53 12 0 962 0 962 59 119 c157 318 345 513 581 604 83 33 236 60
249 45 4 -5 27 -155 52 -332 38 -278 46 -325 62 -334 26 -13 202 -29 247 -22
l38 6 32 120 c68 258 100 489 100 724 l0 151 -57 28 c-75 36 -140 53 -233 60
-41 3 -95 7 -120 9 -25 2 -78 0 -119 -4z"/>
</g>
</svg>
